<svg id="Calque_1" data-name="Calque 1" xmlns="http://www.w3.org/2000/svg" viewBox="0 0 1646 499.33"><defs><style>.cls-1{font-size:502.52px;font-family:Lato-Black, Lato;font-weight:800;}.cls-2{fill:#2d7bf6;}</style></defs><text class="cls-1" transform="translate(22.31 397.36)">St</text><text class="cls-1" transform="translate(827.72 397.36)">rup</text><path class="cls-2" d="M673.42,144.49,705,206.25a15.58,15.58,0,0,0,11.75,8.25l70.54,9.9c12.8,1.8,17.91,17,8.65,25.72l-51,48.07a14.8,14.8,0,0,0-4.49,13.35l12,67.88c2.19,12.32-11.19,21.71-22.64,15.9l-63.09-32.05a16.1,16.1,0,0,0-14.53,0l-63.09,32.05c-11.45,5.81-24.83-3.58-22.64-15.9l12.05-67.88A14.77,14.77,0,0,0,574,298.19l-51-48.07c-9.27-8.72-4.16-23.92,8.64-25.72l70.55-9.9a15.61,15.61,0,0,0,11.75-8.25l31.54-61.76C651.16,133.28,667.69,133.28,673.42,144.49Z"/></svg>